# xmcd
#
# Track frame offsets:
#	150
#	16690
#	29447
#	43055
#	60480
#	76687
#	90285
#	106052
#	123845
#
# Disc length: 1821
#
# Revision: 2
# Processed by: cddbd v1.5.1PL0 Copyright (c) Steve Scherf et al.
# Submitted via: EasyCDDAExtractor 4.6.9.1
# Normalized: r0:DSETVAR1,TDELIM( - ),TSWAP
#
DISCID=56071b09
DTITLE=Various Artist - Country Music Collection
DYEAR=1995
DGENRE=Country
TTITLE0=Alan Jackson - Mercury Blues
TTITLE1=Pam Tills - Put Yourself in My Place
TTITLE2=John Anderson - Money In The Bank
TTITLE3=Martina McBride - Where I Used To Have A Heart
TTITLE4=Michelle Wright - One Time Around
TTITLE5=Diamond Rio - In A Week Or Two
TTITLE6=Prairie Oyster - Such A Lonely One
TTITLE7=Brooks and Dunn - She Used To Be Mine
TTITLE8=Alabama - I'm In A Hurry
EXTD=
EXTT0=
EXTT1=
EXTT2=
EXTT3=
EXTT4=
EXTT5=
EXTT6=
EXTT7=
EXTT8=
PLAYORDER=
